<?xml version="1.0" encoding="utf-8"?>
<!-- Generator: Adobe Illustrator 15.0.2, SVG Export Plug-In . SVG Version: 6.00 Build 0)  -->
<!DOCTYPE svg PUBLIC "-//W3C//DTD SVG 1.1//EN" "http://www.w3.org/Graphics/SVG/1.1/DTD/svg11.dtd">
<svg version="1.1" id="Layer_1" xmlns="http://www.w3.org/2000/svg" xmlns:xlink="http://www.w3.org/1999/xlink" x="0px" y="0px"
	 width="348px" height="51.208px" viewBox="0 0 348 51.208" enable-background="new 0 0 348 51.208" xml:space="preserve">
<g>
	<path fill="#231F20" d="M27.598,35.199c-0.573,0.376-1.423,0.663-2.533,0.663c-1.178,0-1.646-0.196-2.461-0.422
		c-0.173-0.045-0.295-0.106-0.295-0.362c0-0.151-0.017-0.8-0.017-0.979c0-0.211,0.069-0.905,0.295-0.905
		c0.243,0,0.104,0.453,0.295,0.86c0.277,0.587,0.832,1.205,2.427,1.205c1.318,0,2.202-0.604,2.202-1.899
		c0-0.783-0.624-1.417-1.629-1.99l-1.855-1.04c-1.196-0.679-1.717-1.811-1.717-2.896c0-1.688,1.422-2.623,3.589-2.623
		c0.919,0,1.786,0.242,2.028,0.242c0.365,0,0.4-0.105,0.625-0.105c0.139,0-0.035,0.346-0.035,0.513c0,0.181,0.018,0.618,0.018,0.799
		c0,0.09-0.035,0.663-0.087,0.845c-0.034,0.165-0.034,0.255-0.191,0.255c-0.277,0-0.155-0.527-0.242-0.783
		c-0.069-0.211-0.295-0.527-0.555-0.709c-0.329-0.256-0.832-0.482-1.751-0.482c-0.814,0-1.89,0.467-1.89,1.629
		c0,0.89,0.451,1.387,1.526,1.958l1.404,0.74c1.196,0.634,2.323,1.508,2.323,2.955C29.071,33.525,28.742,34.475,27.598,35.199"/>
	<path fill="#231F20" d="M38.761,35.656c-0.391,0-0.796-0.035-1.187-0.035c-0.614,0-1.34,0.035-1.955,0.035
		c-0.069,0-0.321,0.014-0.321-0.096c0-0.242,0.754-0.037,0.754-0.51c0-0.206-0.042-0.485-0.126-0.655l-0.531-1.142
		c-0.153-0.328-0.209-0.607-0.558-0.607h-2.486c-0.404,0-0.516,0-0.669,0.364l-0.559,1.263c-0.084,0.182-0.196,0.571-0.196,0.765
		c0,0.219,0.266,0.254,0.447,0.304c0.111,0.024,0.572,0.049,0.572,0.169c0,0.159-0.126,0.146-0.251,0.146
		c-0.391,0-0.768-0.035-1.159-0.035c-0.447,0-0.852,0.035-1.298,0.035c-0.112,0-0.349,0.026-0.349-0.133
		c0-0.121,0.292-0.108,0.376-0.121c0.531-0.084,0.74-0.352,0.936-0.765l3.615-7.759c0.028-0.059,0.07-0.156,0.167-0.156
		c0.112,0,0.196,0.145,0.223,0.219l3.533,7.599c0.097,0.207,0.265,0.4,0.418,0.583c0.168,0.195,0.908,0.207,0.908,0.426
		C39.068,35.656,38.845,35.656,38.761,35.656L38.761,35.656z M34.657,31.652l-1.019-2.199c-0.028-0.047-0.07-0.206-0.14-0.206
		c-0.069,0-0.056,0.05-0.083,0.098c-0.14,0.28-0.601,1.323-1.075,2.258c-0.097,0.206-0.167,0.353-0.167,0.389
		c0,0.108,0.07,0.085,0.167,0.085h2.066c0.084,0,0.363,0.023,0.363-0.098C34.768,31.906,34.685,31.725,34.657,31.652"/>
	<path fill="#231F20" d="M48.911,27.403c-0.167,0.096-0.237,0.801-0.237,1.517v6.3c0,0.256,0.041,0.644-0.153,0.644
		c-0.168,0-0.349-0.207-0.656-0.485c0,0-3.142-2.779-3.672-3.289c-0.503-0.475-2.737-2.392-2.737-2.392
		c-0.098-0.098-0.223-0.182-0.321-0.182c-0.027,0-0.055,0.022-0.069,0.156c-0.028,0.291-0.014,0.888-0.014,1.409v3.06
		c0,0.461,0.111,0.946,0.376,1.128c0.307,0.207,0.894,0.122,0.894,0.268c0,0.108-0.057,0.134-0.349,0.134
		c-0.252,0-1.019-0.049-1.382-0.049s-1.173,0.049-1.312,0.049c-0.168,0-0.209-0.014-0.209-0.109c0-0.122,0.335-0.061,0.586-0.23
		c0.376-0.255,0.474-0.742,0.474-1.227v-6.531c0-0.655,0.042-0.655,0.153-0.655c0.141,0,0.447,0.242,0.671,0.438
		c0,0,1.494,1.201,3.406,2.974c1.368,1.263,3.294,2.829,3.294,2.829c0.056,0.048,0.154,0.036,0.154-0.218v-3.946
		c0-0.681-0.07-1.324-0.224-1.505c-0.252-0.305-0.824-0.134-0.824-0.305c0-0.085,0.097-0.109,0.293-0.109
		c0.139,0,0.726,0.05,1.088,0.05s0.978-0.062,1.145-0.062c0.084,0,0.392-0.037,0.392,0.097
		C49.679,27.317,49.189,27.244,48.911,27.403"/>
	<path fill="#231F20" d="M64.853,33.691c-1.11,1.342-2.74,2.05-5.045,2.05c-1.335,0-2.497-0.12-3.572-0.12
		c-0.953,0-1.318,0.062-1.665,0.062c-0.26,0-0.347-0.076-0.347-0.183c0-0.104,0.416-0.136,0.624-0.166
		c0.208-0.03,0.364-0.06,0.485-0.286c0.174-0.346,0.243-1.085,0.243-1.794v-6.845c0-0.965-0.521-1.101-1.352-1.101
		c-0.157,0-0.226-0.03-0.226-0.136c0-0.061,0.139-0.167,0.486-0.167c0.312,0,1.231,0.062,1.681,0.062
		c1.041,0,1.942-0.105,3.728-0.105c1.006,0,2.358,0.181,3.277,0.617c1.474,0.694,2.86,2.277,2.86,4.538
		C66.031,31.61,65.581,32.786,64.853,33.691L64.853,33.691z M59.096,25.534c-0.416,0-0.884,0-0.884,0
		c-0.434,0-0.659,0.182-0.659,0.589v6.663c0,0.543,0.069,1.688,0.277,1.81c0.364,0.227,0.261,0.452,2.099,0.452
		c2.253,0,4.125-1.085,4.125-4.508C64.054,27.735,62.27,25.534,59.096,25.534"/>
	<path fill="#231F20" d="M70.382,35.67c-0.112,0-1.062-0.049-1.718-0.049c-0.935,0-1.367,0.049-1.493,0.049
		c-0.182,0-0.252-0.073-0.252-0.146c0-0.036,0.112-0.121,0.252-0.121c0.167,0,0.32-0.036,0.446-0.157
		c0.182-0.183,0.252-0.475,0.252-1.142v-5.852c0-0.327-0.07-0.729-0.307-0.838c-0.335-0.156-0.726-0.109-0.726-0.23
		c0-0.06,0.195-0.109,0.308-0.109c0.083,0,1.144,0.05,1.507,0.05s1.172-0.085,1.382-0.085c0.28,0,0.335,0.072,0.335,0.133
		c0,0.098-0.363,0.108-0.6,0.231c-0.308,0.157-0.308,0.643-0.308,0.885v4.71c0,1.604-0.042,2.04,0.419,2.332
		c0.098,0.061,0.292,0.072,0.53,0.108c0.111,0.013,0.182,0.062,0.182,0.11C70.591,35.633,70.48,35.67,70.382,35.67"/>
	<path fill="#231F20" d="M76.943,28.435c-0.168,0-0.139-0.269-0.182-0.353c-0.112-0.219-0.293-0.413-0.572-0.485
		c-0.252-0.061-0.628-0.073-0.879-0.073h-0.95c-0.251,0-0.321,0-0.321,0.231v2.926c0,0.182,0.028,0.182,0.237,0.182h1.131
		c0.196,0,0.517-0.012,0.67-0.122c0.153-0.108,0.181-0.278,0.223-0.437c0-0.024,0.029-0.268,0.14-0.268
		c0.14,0,0.154,0.243,0.154,0.389c0,0.219-0.084,0.426-0.084,0.645c0,0.303,0.028,0.484,0.028,0.789
		c0,0.072,0.028,0.267-0.112,0.267c-0.195,0-0.069-0.376-0.376-0.632c-0.14-0.109-0.434-0.097-0.614-0.097h-1.257
		c-0.139,0-0.139,0.048-0.139,0.157v2.926c0,0.194,0,0.34,0.168,0.475c0.266,0.217,0.544,0.217,0.907,0.217
		c0.377,0,0.517-0.023,0.88-0.133c0.251-0.084,0.418-0.243,0.544-0.437c0.014-0.036,0.154-0.34,0.237-0.34
		c0.098,0,0.098,0.096,0.098,0.157c0,0.121-0.153,0.462-0.279,0.729c-0.098,0.206-0.154,0.363-0.196,0.401
		c-0.083,0.072-0.279,0.107-0.404,0.107c-1.117,0-1.662-0.035-2.779-0.035c-0.46,0-0.921,0.049-1.382,0.049
		c-0.112,0-0.46,0.013-0.46-0.134c0-0.194,0.726-0.036,0.893-0.4c0.181-0.389,0.181-2.112,0.181-2.549v-4.116
		c0-0.194-0.055-0.923-0.236-1.044c-0.224-0.146-0.769-0.109-0.769-0.243c0-0.109,0.224-0.109,0.307-0.109
		c0.378,0,0.754,0.05,1.131,0.05c0.698,0,1.41-0.013,2.108-0.025c0.573-0.013,0.601-0.036,1.172-0.036
		c0.251,0,0.489-0.023,0.741-0.023c0.153,0,0.083,0.23,0.083,0.315c0,0.29,0.043,0.57,0.043,0.861
		C77.027,28.338,77.027,28.435,76.943,28.435"/>
	<path fill="#231F20" d="M86.873,31.712c-0.293,0.182-0.335,0.777-0.335,1.286v0.936c0,0.388,0,0.85,0,0.971
		c0,0.146,0,0.28-0.125,0.341c-0.35,0.181-1.424,0.571-3.226,0.571c-1.284,0-2.149-0.16-3.113-0.646
		c-1.424-0.716-2.206-1.929-2.206-3.969c0-1.469,0.852-3.229,2.875-3.958c0.573-0.205,1.271-0.315,2.039-0.315
		c1.926,0,2.987,0.438,3.406,0.438c0.377,0,0.363-0.171,0.475-0.171c0.098,0,0.083,0.085,0.083,0.146
		c0,0.049-0.056,0.206-0.097,0.668c-0.042,0.388-0.014,0.534-0.07,0.85c-0.042,0.206-0.042,0.352-0.167,0.352
		c-0.084,0-0.168-0.146-0.168-0.303c0-0.061,0.014-0.364-0.223-0.583c-0.307-0.279-1.634-0.911-3.365-0.911
		c-2.066,0-3.085,1.434-3.085,3.278c0,3.218,1.215,4.661,3.616,4.661c0.461,0,1.075-0.206,1.341-0.363
		c0.363-0.22,0.376-0.633,0.376-1.263v-1.3c0-0.182-0.028-0.497-0.168-0.595c-0.516-0.34-0.768-0.242-0.768-0.364
		c0-0.097,0.07-0.133,0.266-0.133c0.153,0,0.866,0.085,1.521,0.085c0.391,0,1.327-0.085,1.41-0.085c0.084,0,0.223,0.023,0.223,0.145
		C87.389,31.566,87.082,31.578,86.873,31.712"/>
	<path fill="#231F20" d="M93.141,35.816c-2.987,0-4.998-1.785-4.998-4.372c0-0.425,0.028-0.86,0.153-1.298
		c0.517-1.809,2.206-3.218,4.454-3.218c0.6,0,1.243,0.048,1.871,0.243c1.982,0.606,3.155,2.258,3.155,4.03
		C97.776,33.642,96.31,35.816,93.141,35.816L93.141,35.816z M92.75,27.403c-2.401,0-2.862,2.16-2.862,3.58
		c0,2.465,1.187,4.358,3.393,4.358c2.025,0,2.792-1.565,2.792-3.229C96.072,30.036,95.109,27.403,92.75,27.403"/>
	<path fill="#231F20" d="M107.209,35.199c-0.573,0.376-1.422,0.663-2.531,0.663c-1.179,0-1.647-0.196-2.462-0.422
		c-0.174-0.045-0.295-0.106-0.295-0.362c0-0.151-0.017-0.8-0.017-0.979c0-0.211,0.069-0.905,0.294-0.905
		c0.243,0,0.104,0.453,0.295,0.86c0.277,0.587,0.833,1.205,2.428,1.205c1.317,0,2.202-0.604,2.202-1.899
		c0-0.783-0.625-1.417-1.63-1.99l-1.855-1.04c-1.197-0.679-1.717-1.811-1.717-2.896c0-1.688,1.422-2.623,3.589-2.623
		c0.919,0,1.786,0.242,2.029,0.242c0.363,0,0.399-0.105,0.624-0.105c0.139,0-0.034,0.346-0.034,0.513
		c0,0.181,0.017,0.618,0.017,0.799c0,0.09-0.035,0.663-0.086,0.845c-0.035,0.165-0.035,0.255-0.191,0.255
		c-0.277,0-0.155-0.527-0.243-0.783c-0.07-0.211-0.295-0.527-0.555-0.709c-0.33-0.256-0.833-0.482-1.751-0.482
		c-0.815,0-1.89,0.467-1.89,1.629c0,0.89,0.451,1.387,1.526,1.958l1.404,0.74c1.196,0.634,2.323,1.508,2.323,2.955
		C108.683,33.525,108.354,34.475,107.209,35.199"/>
	<path fill="#231F20" d="M116.817,27.718c-0.07,0.292-0.028,0.789-0.209,0.789c-0.168,0-0.056-0.363-0.168-0.474
		c-0.069-0.072-0.209-0.267-0.963-0.267h-1.34c-0.223,0-0.266-0.037-0.28,0.169c-0.014,0.257-0.027,1.068-0.027,2.126v2.307
		c0,1.08-0.056,2.488,0.195,2.791c0.112,0.133,0.293,0.194,0.489,0.243c0.167,0.049,0.502-0.012,0.502,0.134
		c0,0.12-0.181,0.12-0.405,0.12c-0.237,0-1.145-0.035-1.424-0.035c-0.419,0-1.55,0.035-1.662,0.035c-0.154,0-0.321,0-0.321-0.096
		c0-0.23,0.767,0.012,0.92-0.401c0.07-0.193,0.112-1.213,0.112-1.991v-3.641l-0.042-1.47c0-0.133,0.014-0.291-0.209-0.291h-2.038
		c-0.322,0-0.489,0.364-0.601,0.462c-0.112,0.097-0.014,0.267-0.182,0.267c-0.125,0-0.112-0.17-0.112-0.267
		c0-0.085,0.14-0.692,0.223-0.936c0.084-0.242,0.057-0.352,0.21-0.352c0.139,0,0.224,0.084,0.433,0.109
		c0.307,0.035,1.061,0.073,1.465,0.073h3.449c0.502,0,1.884-0.05,1.912-0.05c0.098,0,0.182,0.073,0.182,0.195
		C116.929,27.305,116.858,27.512,116.817,27.718"/>
	<path fill="#231F20" d="M125.654,35.656c-0.391,0-0.796-0.035-1.187-0.035c-0.614,0-1.34,0.035-1.955,0.035
		c-0.07,0-0.32,0.014-0.32-0.096c0-0.242,0.753-0.037,0.753-0.51c0-0.206-0.042-0.485-0.125-0.655l-0.531-1.142
		c-0.153-0.328-0.209-0.607-0.558-0.607h-2.485c-0.405,0-0.516,0-0.671,0.364l-0.557,1.263c-0.084,0.182-0.196,0.571-0.196,0.765
		c0,0.219,0.266,0.254,0.447,0.304c0.112,0.024,0.572,0.049,0.572,0.169c0,0.159-0.125,0.146-0.251,0.146
		c-0.392,0-0.769-0.035-1.159-0.035c-0.447,0-0.851,0.035-1.298,0.035c-0.112,0-0.349,0.026-0.349-0.133
		c0-0.121,0.292-0.108,0.376-0.121c0.53-0.084,0.74-0.352,0.936-0.765l3.616-7.759c0.027-0.059,0.07-0.156,0.167-0.156
		c0.112,0,0.196,0.145,0.224,0.219l3.532,7.599c0.098,0.207,0.266,0.4,0.419,0.583c0.168,0.195,0.908,0.207,0.908,0.426
		C125.961,35.656,125.737,35.656,125.654,35.656L125.654,35.656z M121.549,31.652l-1.019-2.199
		c-0.028-0.047-0.069-0.206-0.139-0.206s-0.056,0.05-0.084,0.098c-0.14,0.28-0.6,1.323-1.075,2.258
		c-0.098,0.206-0.167,0.353-0.167,0.389c0,0.108,0.069,0.085,0.167,0.085h2.067c0.083,0,0.363,0.023,0.363-0.098
		C121.661,31.906,121.577,31.725,121.549,31.652"/>
	<g>
		<path fill="#231F20" d="M132.605,27.718c-0.07,0.292-0.029,0.789-0.209,0.789c-0.168,0-0.056-0.363-0.168-0.474
			c-0.069-0.072-0.21-0.267-0.963-0.267h-1.34c-0.224,0-0.266-0.037-0.28,0.169c-0.014,0.257-0.028,1.068-0.028,2.126v2.307
			c0,1.08-0.055,2.488,0.196,2.791c0.111,0.133,0.292,0.194,0.488,0.243c0.167,0.049,0.503-0.012,0.503,0.134
			c0,0.12-0.181,0.12-0.405,0.12c-0.237,0-1.145-0.035-1.425-0.035c-0.418,0-1.549,0.035-1.661,0.035c-0.153,0-0.32,0-0.32-0.096
			c0-0.23,0.767,0.012,0.921-0.401c0.07-0.193,0.112-1.213,0.112-1.991v-3.641l-0.042-1.47c0-0.133,0.013-0.291-0.21-0.291h-2.038
			c-0.321,0-0.488,0.364-0.6,0.462c-0.112,0.097-0.015,0.267-0.182,0.267c-0.126,0-0.111-0.17-0.111-0.267
			c0-0.085,0.14-0.692,0.223-0.936c0.083-0.242,0.056-0.352,0.209-0.352c0.139,0,0.223,0.084,0.433,0.109
			c0.306,0.035,1.061,0.073,1.465,0.073h3.449c0.502,0,1.884-0.05,1.912-0.05c0.098,0,0.182,0.073,0.182,0.195
			C132.716,27.305,132.646,27.512,132.605,27.718"/>
		<path fill="#231F20" d="M138.999,28.435c-0.168,0-0.141-0.269-0.182-0.353c-0.113-0.219-0.294-0.413-0.572-0.485
			c-0.252-0.061-0.628-0.073-0.881-0.073h-0.948c-0.252,0-0.32,0-0.32,0.231v2.926c0,0.182,0.027,0.182,0.236,0.182h1.131
			c0.195,0,0.517-0.012,0.671-0.122c0.152-0.108,0.181-0.278,0.223-0.437c0-0.024,0.028-0.268,0.14-0.268
			c0.14,0,0.153,0.243,0.153,0.389c0,0.219-0.084,0.426-0.084,0.645c0,0.303,0.028,0.484,0.028,0.789
			c0,0.072,0.027,0.267-0.111,0.267c-0.196,0-0.07-0.376-0.377-0.632c-0.141-0.109-0.433-0.097-0.615-0.097h-1.256
			c-0.139,0-0.139,0.048-0.139,0.157v2.926c0,0.194,0,0.34,0.167,0.475c0.265,0.217,0.545,0.217,0.907,0.217
			c0.377,0,0.516-0.023,0.879-0.133c0.251-0.084,0.419-0.243,0.545-0.437c0.014-0.036,0.153-0.34,0.237-0.34
			c0.098,0,0.098,0.096,0.098,0.157c0,0.121-0.154,0.462-0.279,0.729c-0.098,0.206-0.153,0.363-0.195,0.401
			c-0.084,0.072-0.279,0.107-0.405,0.107c-1.116,0-1.661-0.035-2.778-0.035c-0.46,0-0.92,0.049-1.381,0.049
			c-0.112,0-0.461,0.013-0.461-0.134c0-0.194,0.726-0.036,0.893-0.4c0.183-0.389,0.183-2.112,0.183-2.549v-4.116
			c0-0.194-0.057-0.923-0.238-1.044c-0.223-0.146-0.768-0.109-0.768-0.243c0-0.109,0.223-0.109,0.307-0.109
			c0.376,0,0.753,0.05,1.131,0.05c0.697,0,1.41-0.013,2.107-0.025c0.573-0.013,0.601-0.036,1.173-0.036
			c0.251,0,0.487-0.023,0.74-0.023c0.153,0,0.084,0.23,0.084,0.315c0,0.29,0.041,0.57,0.041,0.861
			C139.082,28.338,139.082,28.435,138.999,28.435"/>
	</g>
	<path fill="#231F20" d="M33.637,39.462c-0.676,0.256-0.554,1.221-0.554,2.02v4.267c0,2.925-1.821,4.192-5.115,4.192
		c-3.052,0-5.045-0.92-5.045-3.438v-5.021c0-0.723-0.018-1.703-0.157-1.839c-0.259-0.242-0.97-0.301-0.97-0.377
		c0-0.136,0.052-0.181,0.311-0.181c0.417,0,1.11,0.06,1.874,0.06c0.919,0,1.56-0.075,1.733-0.075c0.243,0,0.347,0.03,0.347,0.151
		c0,0.09-0.399,0.105-0.59,0.195c-0.33,0.167-0.521,0.422-0.521,2.864v3.829c0,1.69,0.954,3.183,3.451,3.183s3.763-0.77,3.763-3.183
		v-3.301c0-1.402-0.156-2.971-0.434-3.15c-0.52-0.348-1.162-0.302-1.162-0.423s0.139-0.15,0.382-0.15c0.173,0,0.936,0.06,1.595,0.06
		c0.659,0,1.214-0.06,1.353-0.06c0.19,0,0.451-0.046,0.451,0.136C34.348,39.371,34.157,39.266,33.637,39.462"/>
	<path fill="#231F20" d="M43.996,41.479c-0.167,0.098-0.236,0.802-0.236,1.518v6.302c0,0.254,0.041,0.643-0.155,0.643
		c-0.167,0-0.349-0.206-0.655-0.486c0,0-3.142-2.779-3.672-3.289c-0.502-0.473-2.736-2.392-2.736-2.392
		c-0.098-0.097-0.224-0.182-0.321-0.182c-0.028,0-0.055,0.023-0.07,0.157c-0.028,0.292-0.015,0.887-0.015,1.408v3.06
		c0,0.461,0.112,0.947,0.378,1.129c0.307,0.206,0.893,0.121,0.893,0.268c0,0.109-0.055,0.134-0.349,0.134
		c-0.251,0-1.02-0.05-1.381-0.05c-0.364,0-1.173,0.05-1.313,0.05c-0.167,0-0.208-0.013-0.208-0.109c0-0.122,0.334-0.062,0.586-0.231
		c0.377-0.255,0.475-0.74,0.475-1.227v-6.529c0-0.657,0.042-0.657,0.153-0.657c0.139,0,0.447,0.243,0.669,0.438
		c0,0,1.494,1.2,3.407,2.974c1.368,1.262,3.294,2.828,3.294,2.828c0.056,0.049,0.153,0.037,0.153-0.219v-3.946
		c0-0.678-0.069-1.322-0.223-1.505c-0.251-0.303-0.824-0.132-0.824-0.303c0-0.085,0.098-0.109,0.294-0.109
		c0.139,0,0.725,0.049,1.088,0.049c0.363,0,0.977-0.062,1.145-0.062c0.083,0,0.39-0.035,0.39,0.098
		C44.764,41.395,44.276,41.322,43.996,41.479"/>
	<path fill="#231F20" d="M49.218,49.748c-0.111,0-1.061-0.05-1.717-0.05c-0.936,0-1.368,0.05-1.493,0.05
		c-0.182,0-0.251-0.074-0.251-0.146c0-0.037,0.111-0.122,0.251-0.122c0.167,0,0.32-0.035,0.446-0.157
		c0.182-0.182,0.251-0.474,0.251-1.142v-5.852c0-0.328-0.069-0.728-0.306-0.837c-0.335-0.157-0.726-0.109-0.726-0.23
		c0-0.061,0.194-0.109,0.307-0.109c0.084,0,1.145,0.049,1.507,0.049s1.173-0.085,1.382-0.085c0.279,0,0.335,0.073,0.335,0.133
		c0,0.098-0.363,0.109-0.601,0.23c-0.307,0.158-0.307,0.645-0.307,0.888v4.709c0,1.603-0.042,2.04,0.419,2.331
		c0.097,0.061,0.292,0.072,0.53,0.109c0.112,0.013,0.182,0.061,0.182,0.109C49.428,49.711,49.316,49.748,49.218,49.748"/>
	<path fill="#231F20" d="M60.456,41.299c-0.154,0.072-0.307,0-0.615,0.181c-0.362,0.219-0.628,0.74-0.795,1.081l-3.686,7.224
		c-0.042,0.073-0.126,0.157-0.223,0.157c-0.098,0-0.154-0.084-0.195-0.157l-3.755-7.357c-0.223-0.438-0.49-0.897-1.075-1.02
		c-0.098-0.024-0.433-0.036-0.433-0.146s0.306-0.109,0.391-0.109c0.531,0,1.047,0.049,1.578,0.049c0.404,0,0.921-0.049,1.312-0.049
		c0.069,0,0.279,0,0.279,0.097c0,0.171-0.502,0.013-0.502,0.364c0,0.23,0.265,0.887,0.376,1.105l2.304,4.564
		c0.028,0.047,0.098,0.193,0.181,0.193c0.07,0,0.126-0.097,0.154-0.146l2.527-4.988c0.083-0.182,0.167-0.449,0.167-0.644
		c0-0.376-0.447-0.291-0.447-0.437c0-0.122,0.098-0.109,0.209-0.109c0.321,0,0.656,0.049,0.977,0.049
		c0.335,0,0.656-0.062,0.991-0.062c0.084,0,0.307,0.013,0.307,0.122C60.484,41.273,60.47,41.287,60.456,41.299"/>
	<path fill="#231F20" d="M66.389,42.512c-0.167,0-0.14-0.267-0.181-0.352c-0.112-0.219-0.293-0.413-0.573-0.485
		c-0.251-0.062-0.628-0.073-0.88-0.073h-0.949c-0.251,0-0.32,0-0.32,0.23v2.927c0,0.181,0.028,0.181,0.237,0.181h1.13
		c0.196,0,0.517-0.012,0.671-0.121c0.153-0.109,0.181-0.278,0.223-0.438c0-0.024,0.028-0.266,0.14-0.266
		c0.139,0,0.153,0.241,0.153,0.388c0,0.218-0.083,0.425-0.083,0.644c0,0.303,0.028,0.485,0.028,0.789
		c0,0.072,0.028,0.268-0.111,0.268c-0.196,0-0.07-0.377-0.377-0.632c-0.141-0.109-0.433-0.097-0.614-0.097h-1.257
		c-0.139,0-0.139,0.048-0.139,0.157v2.926c0,0.193,0,0.34,0.167,0.474c0.265,0.219,0.545,0.219,0.908,0.219
		c0.377,0,0.517-0.024,0.879-0.134c0.251-0.085,0.419-0.243,0.544-0.438c0.014-0.036,0.153-0.34,0.237-0.34
		c0.097,0,0.097,0.098,0.097,0.158c0,0.12-0.153,0.461-0.279,0.729c-0.097,0.206-0.153,0.363-0.195,0.4
		c-0.083,0.072-0.279,0.109-0.404,0.109c-1.116,0-1.661-0.037-2.779-0.037c-0.46,0-0.921,0.05-1.381,0.05
		c-0.112,0-0.461,0.012-0.461-0.134c0-0.195,0.726-0.037,0.894-0.4c0.182-0.39,0.182-2.113,0.182-2.55v-4.116
		c0-0.194-0.056-0.923-0.237-1.043c-0.224-0.146-0.769-0.11-0.769-0.243c0-0.109,0.224-0.109,0.308-0.109
		c0.376,0,0.754,0.049,1.131,0.049c0.699,0,1.409-0.012,2.108-0.024c0.572-0.013,0.6-0.037,1.172-0.037
		c0.252,0,0.489-0.023,0.74-0.023c0.153,0,0.084,0.23,0.084,0.316c0,0.291,0.042,0.568,0.042,0.861
		C66.473,42.414,66.473,42.512,66.389,42.512"/>
	<path fill="#231F20" d="M77.074,49.724h-0.893c-0.922,0-1.801-0.232-2.374-0.875l-1.619-1.833
		c-0.377-0.438-0.531-0.971-1.075-0.971h-0.531c-0.084,0-0.125,0.024-0.125,0.097v1.614c0,0.899,0.14,1.312,0.223,1.458
		c0.07,0.145,0.196,0.169,0.321,0.23c0.168,0.072,0.559,0.072,0.559,0.17c0,0.084-0.098,0.134-0.293,0.134
		c-0.14,0-1.09-0.05-1.48-0.05c-0.39,0-1.284,0.05-1.424,0.05c-0.168,0-0.419-0.013-0.419-0.109c0-0.098,0.321-0.134,0.544-0.231
		c0.321-0.134,0.377-0.484,0.377-0.946v-6.253c0-0.242-0.098-0.533-0.209-0.606c-0.391-0.255-0.852-0.182-0.852-0.314
		c0-0.086,0.028-0.135,0.237-0.135c0.14,0,0.852,0.049,1.592,0.049c0.699,0,1.298-0.085,1.871-0.085
		c1.716,0,3.197,0.764,3.197,2.137c0,1.565-1.592,2.27-1.704,2.343c-0.069,0.048-0.042,0.085,0.056,0.193l2.052,2.162
		c0.656,0.68,1.355,1.396,1.997,1.493c0.168,0.023,0.489-0.037,0.489,0.12C77.591,49.711,77.242,49.724,77.074,49.724L77.074,49.724
		z M71.182,41.688c-0.111,0-0.335,0-0.335,0c-0.321,0-0.391,0.29-0.391,0.532v3.205c0,0.146,0.349,0.122,0.502,0.122h0.502
		c0.517,0,0.531-0.049,0.614-0.072c0.602-0.231,1.047-0.571,1.047-1.797C73.123,42.767,72.537,41.688,71.182,41.688"/>
	<path fill="#231F20" d="M82.226,49.358c-0.461,0.304-1.146,0.534-2.04,0.534c-0.949,0-1.326-0.157-1.981-0.34
		c-0.14-0.036-0.237-0.085-0.237-0.29c0-0.122-0.015-0.646-0.015-0.79c0-0.17,0.057-0.729,0.238-0.729
		c0.195,0,0.083,0.364,0.237,0.692c0.223,0.474,0.67,0.971,1.955,0.971c1.061,0,1.773-0.484,1.773-1.529
		c0-0.632-0.503-1.142-1.313-1.603l-1.493-0.838c-0.964-0.546-1.382-1.456-1.382-2.33c0-1.36,1.145-2.113,2.89-2.113
		c0.74,0,1.438,0.195,1.633,0.195c0.293,0,0.321-0.085,0.503-0.085c0.111,0-0.028,0.278-0.028,0.412
		c0,0.146,0.014,0.498,0.014,0.644c0,0.072-0.028,0.534-0.069,0.681c-0.029,0.133-0.029,0.205-0.154,0.205
		c-0.223,0-0.126-0.424-0.195-0.632c-0.056-0.169-0.237-0.425-0.447-0.57c-0.265-0.206-0.67-0.388-1.41-0.388
		c-0.657,0-1.522,0.376-1.522,1.311c0,0.717,0.363,1.117,1.229,1.578l1.13,0.595c0.963,0.51,1.871,1.214,1.871,2.379
		C83.412,48.012,83.146,48.777,82.226,49.358"/>
	<path fill="#231F20" d="M87.917,49.748c-0.111,0-1.061-0.05-1.717-0.05c-0.936,0-1.368,0.05-1.494,0.05
		c-0.181,0-0.251-0.074-0.251-0.146c0-0.037,0.112-0.122,0.251-0.122c0.167,0,0.321-0.035,0.447-0.157
		c0.182-0.182,0.252-0.474,0.252-1.142v-5.852c0-0.328-0.07-0.728-0.307-0.837c-0.336-0.157-0.726-0.109-0.726-0.23
		c0-0.061,0.195-0.109,0.307-0.109c0.083,0,1.145,0.049,1.508,0.049s1.172-0.085,1.382-0.085c0.279,0,0.335,0.073,0.335,0.133
		c0,0.098-0.363,0.109-0.601,0.23c-0.308,0.158-0.308,0.645-0.308,0.888v4.709c0,1.603-0.042,2.04,0.419,2.331
		c0.098,0.061,0.292,0.072,0.53,0.109c0.112,0.013,0.182,0.061,0.182,0.109C88.127,49.711,88.015,49.748,87.917,49.748"/>
	<path fill="#231F20" d="M96.712,41.796c-0.07,0.291-0.028,0.789-0.21,0.789c-0.167,0-0.055-0.365-0.167-0.474
		c-0.069-0.072-0.209-0.268-0.962-0.268h-1.341c-0.223,0-0.265-0.036-0.279,0.171c-0.015,0.255-0.028,1.067-0.028,2.123v2.308
		c0,1.081-0.056,2.488,0.195,2.791c0.111,0.135,0.292,0.195,0.488,0.243c0.168,0.05,0.502-0.012,0.502,0.135
		c0,0.121-0.181,0.121-0.404,0.121c-0.238,0-1.146-0.037-1.424-0.037c-0.419,0-1.549,0.037-1.662,0.037c-0.153,0-0.32,0-0.32-0.097
		c0-0.231,0.768,0.012,0.921-0.402c0.069-0.193,0.112-1.213,0.112-1.99v-3.642l-0.042-1.469c0-0.135,0.014-0.292-0.208-0.292h-2.039
		c-0.321,0-0.488,0.364-0.6,0.462c-0.111,0.098-0.014,0.267-0.182,0.267c-0.126,0-0.111-0.169-0.111-0.267
		c0-0.086,0.139-0.692,0.223-0.935c0.083-0.243,0.056-0.352,0.209-0.352c0.139,0,0.224,0.085,0.433,0.108
		c0.306,0.036,1.061,0.073,1.466,0.073h3.448c0.502,0,1.885-0.049,1.912-0.049c0.098,0,0.182,0.073,0.182,0.194
		C96.824,41.383,96.754,41.59,96.712,41.796"/>
	<path fill="#231F20" d="M107.473,41.347c-0.181,0.024-0.292,0.036-0.474,0.098c-0.209,0.072-0.671,0.533-0.81,0.691l-2.75,3.229
		c-0.126,0.146-0.224,0.497-0.224,0.68c0,0.862,0,1.711,0,2.572c0,0.207,0.013,0.45,0.167,0.608
		c0.126,0.133,0.419,0.266,0.615,0.266c0.098,0,0.334-0.023,0.334,0.11c0,0.158-0.349,0.134-0.46,0.134
		c-0.433,0-0.936-0.037-1.368-0.037c-0.447,0-0.963,0.037-1.41,0.037c-0.098,0-0.475,0.024-0.475-0.121
		c0-0.109,0.335-0.123,0.433-0.146c0.139-0.049,0.251-0.097,0.363-0.182c0.209-0.17,0.209-0.681,0.209-0.91v-2.258
		c0-0.207-0.028-0.329-0.167-0.498l-2.847-3.509c-0.168-0.206-0.392-0.498-0.657-0.606c-0.126-0.049-0.74-0.11-0.74-0.206
		c0-0.159,0.376-0.146,0.489-0.146c0.376,0,0.768,0.049,1.145,0.049c0.46,0,1.047-0.049,1.507-0.049c0.098,0,0.432,0,0.432,0.146
		c0,0.096-0.502,0.084-0.502,0.206c0,0.219,0.181,0.484,0.321,0.655l2.136,2.599c0.042,0.047,0.112,0.133,0.195,0.133
		c0.07,0,0.126-0.086,0.167-0.133l1.661-1.992c0.224-0.267,0.627-0.85,0.627-1.177c0-0.279-0.488-0.195-0.488-0.291
		c0-0.135,0.237-0.135,0.349-0.135c0.251,0,0.517,0.037,0.769,0.037c0.447,0,0.879-0.037,1.326-0.037
		c0.098,0,0.335-0.012,0.335,0.123C107.683,41.347,107.501,41.347,107.473,41.347"/>
</g>
<g>
	<path fill="#FFFFFF" stroke="#231F20" stroke-width="0.511" d="M18.073,50.313l-17.056,0.01L1,24.968C1,24.968,4.108,23,9.541,23
		s8.533,1.898,8.533,1.898L18.073,50.313z"/>
</g>
<path fill="#231F20" d="M17.213,49.51L1.83,49.517L1.832,27.11c0,0,2.675-1.746,7.695-1.746c5.021,0,7.681,1.772,7.681,1.772
	L17.213,49.51"/>
<polyline fill="#C31230" points="6.663,47.534 6.719,47.668 7.416,48.528 7.784,48.643 7.605,47.507 6.663,47.534 "/>
<polyline fill="#C31230" points="11.056,47.258 11.056,47.607 7.017,47.608 7.033,47.259 11.056,47.258 "/>
<path fill="#C31230" d="M12.676,47.969c0.001,0,0,0.346-0.001,0.346c0,0-5.198,0.012-5.198,0.007c0,0.001-0.155-0.254-0.254-0.355
	C7.223,47.966,12.673,47.966,12.676,47.969"/>
<path fill="#C31230" d="M3.902,38.573l-0.001,1.542c-0.49-0.033-0.869-0.057-0.869-0.057v-1.564v-0.002
	c0-0.227,0.195-0.409,0.435-0.409C3.708,38.083,3.903,38.347,3.902,38.573L3.902,38.573"/>
<path fill="#C31230" d="M1.848,28.633c0,0,0.632-0.04,1.118,0.552c0.198,0.223,0.276,0.565,0.466,0.734
	c0.243,0.215,0.447,0.229,0.626,0.317c0.113,0.057,0.68,0.271,0.746,1.366l-0.097,0.421l-2.87-0.021
	C1.835,31.962,1.848,28.633,1.848,28.633"/>
<path fill="#C31230" d="M7.436,48.416C7.16,47.608,6.85,47.634,6.31,47.515c-0.06-0.019-0.23-0.022-0.33-0.084
	c-0.097-0.062-0.139-0.116-0.209-0.175c-1.183-0.966-1.918-0.457-2.009-0.494c-0.75-1.043-1.907-0.862-1.707-0.868
	c-0.007-0.002-0.122-0.002-0.198-0.004v2.844l1.995-0.127l2.905,0.049L7.436,48.416"/>
<path fill="#C31230" d="M7.436,48.416C7.16,47.608,6.85,47.634,6.31,47.515c-0.06-0.019-0.23-0.022-0.33-0.084
	c-0.097-0.062-0.139-0.116-0.209-0.175c-1.183-0.966-1.918-0.457-2.009-0.494c-0.75-1.043-1.907-0.862-1.707-0.868
	c-0.007-0.002-0.144,0.018-0.22,0.016l0.002,2.818l2.015-0.121l2.905,0.049L7.436,48.416"/>
<polyline fill="#C31230" points="6.648,47.608 7.137,47.609 7.137,44.402 6.653,44.404 6.648,47.608 "/>
<path fill="#C31230" d="M3.399,31.576c0.913,0.288,2.79,0.935,3.032,1.082c0.528,0.277,0.504,0.351,0.544,0.425
	c0.012,0.048,0.008,0.092,0.005,0.108c-0.468-0.544-2.075-0.882-3.583-0.972C3.397,32.223,3.4,31.579,3.399,31.576"/>
<polyline fill="#231F20" points="11.057,44.658 9.382,44.654 9.382,41.782 11.057,41.785 11.057,44.658 "/>
<path fill="#D9C792" d="M13.057,39.487c0.014-0.006,0.062-0.021,0.062-0.021s-0.037,0.07-0.053,0.185
	c-0.001,0.017-0.002,0.062-0.003,0.124c0,0.003,0.003,1.445,0.003,1.446c0.003,0.003-0.28,0.038-0.28,0.038c0,0.001,0-1.446,0-1.446
	C12.782,39.727,12.881,39.555,13.057,39.487"/>
<path fill="#FFFFFF" d="M17.297,34.658c-0.021-0.038,0.002-0.275-0.043-0.292c-0.657-0.229-0.825-0.241-1.013-0.279
	c-0.093-0.017-0.181-0.027-0.342-0.046c-1.189-0.122-1.735,0.035-1.777,0.032c-0.016,0-0.651,0.11-0.763,0.173
	c0,0-0.008,5.089-0.01,5.081c0.004,0.091,0.217-0.005,0.307,0.207c0.026,0.062,0.038,0.225,0.042,0.502l0.006,1.654
	c-0.114-0.022-0.202-0.071-0.322,0.105c-0.001,0.002-0.039,6.244-0.018,6.258c0.035,0.061,0.192-0.405,0.807-0.647
	c1.049-0.409,1.536-0.091,1.872-0.135c0.333-0.046,0.359-0.252,1.119-0.65c0.022-0.009,0.065-0.029,0.078-0.018
	c0,0,0.001-3.046,0.002-4.496c0.008,0.004,0.016,0.007,0.023,0.01C17.261,42.137,17.304,34.661,17.297,34.658z"/>
<path fill="#FFFFFF" d="M1.796,32.638c0.006-0.071,0.063-0.063,0.063-0.063c0.553-0.07,1.128-0.059,1.691-0.028
	c0.213,0.007,0.737,0.054,1.097,0.119c0.127,0.01,0.813,0.138,1.099,0.225c0.473,0.178,0.289,0.089,0.608,0.253
	c0.239,0.126,0.418,0.148,0.401,0.385c-0.052,0.031,0.397-0.276,0.265-0.189c-0.035,0.005-0.139,0.031-0.118-0.006
	c0.06-0.048,0.19-0.194-0.13-0.453c0.132-0.009,0.573-0.035,0.884-0.006c0.222,0.019,0.684,0.033,0.968,0.057
	c0.165-0.01,0.53,0.129,1.254,0.188c0.371,0.056,0.459,0.07,0.825,0.143c0.521,0.069,1.56,0.243,1.56,0.243l-0.153,0.146
	c0-0.001,0,0.281,0,0.279c-0.964,0.342-0.484,0.639-0.238,0.573c-0.001,0-0.168-0.141-0.231-0.068c-0.333,0.381-2,2.232-2.009,2.226
	c-0.005,0.007,1.347,0.163,1.336,0.147v0.742c0.006,0.096,0.024,0.832,0.013,0.801c-0.222-0.106-0.41-0.434-0.624-0.525
	c-0.233-0.097-0.486-0.377-0.657-0.39c-0.097-0.008-0.446-0.062-0.683-0.048c-0.282,0-0.506,0.079-0.764,0.129
	C8.15,37.537,7.99,37.589,7.853,37.65c-0.073,0.042-0.193,0.102-0.267,0.126c-0.197,0.109-0.333,0.177-0.395,0.243
	c-0.068,0.052-0.178,0.123-0.236,0.19c-0.202,0.216-0.354,0.93-0.354,0.925c0,0-0.001,0.66-0.001,0.659
	c0,0.001,0.313,0.001,0.313,0.001s0.464,0.012,0.857,0.078c0.374,0.064,0.547,0.13,0.801,0.258c0.091,0.051,0.762,0.534,0.803,1.362
	c0.018,0.415-0.012,0.716,0.003,0.796c0.002,0.014,0.019,0.079-0.02,0.071c-0.181-0.036-0.448-0.091-0.574-0.122
	c-0.032-0.006-0.078,0.001-0.102,0.006c-0.148,0.029-0.303-0.049-0.451,0.043c-0.198-0.004-0.229,0.083-0.402,0.075
	c-0.049-0.002-0.146,0.039-0.271,0.082c-0.146,0.039-0.233,0.077-0.322,0.139c-0.283,0.095-0.398,0.288-0.587,0.45
	c0,0,0.013,2.064,0.119,3.654c0.003,0.008-0.091,0.584-0.009,0.832c0.064,0.197,0.309,0.076,0.315,0.083
	c-0.014,0,0.354,0.81,0.355,0.807c-0.275-0.807-0.314,0.183-0.854,0.064c-0.061-0.02-0.482,0.108-0.581,0.047
	c-0.099-0.061-0.758,0.058-0.829,0c-1.184-0.965-1.556-0.506-1.648-0.543c-0.447-1.297-1.646-2.09-1.661-2.089
	C1.85,45.887,1.78,45.894,1.76,45.896"/>
<polyline fill="#231F20" points="6.663,47.534 6.719,47.668 7.416,48.528 7.784,48.643 7.605,47.507 6.663,47.534 "/>
<polyline fill="#231F20" points="11.056,47.258 11.056,47.607 7.017,47.608 7.033,47.259 11.056,47.258 "/>
<path fill="#231F20" d="M12.676,47.969c0.001,0,0,0.346-0.001,0.346c0,0-5.198,0.012-5.198,0.007c0,0.001-0.155-0.254-0.254-0.355
	C7.223,47.966,12.673,47.966,12.676,47.969"/>
<path fill="#FFFFFF" d="M11.099,30.984c-0.853-0.143-3.595-0.575-4.217-0.791c-0.017,0-0.199-0.006-0.199-0.009"/>
<path fill="#FFFFFF" d="M6.048,32.183c0,0.02,0.096-1.892,0.086-1.882c-0.001-0.011,4.829,0.69,4.923,0.759"/>
<path fill="#FFFFFF" d="M6.477,29.995c-0.004,0,0.744-0.731,0.824-0.87c0.081-0.137,0.225-0.969,0.221-1.04
	c-0.003,0,0.059-0.213,0.059-0.217c0.005-0.005,0.769-0.494,0.769-0.497c0.063-0.021,1.322,0.805,1.322,0.803
	c0.001,0.001-0.05,0.259-0.049,0.259c-0.002,0.004,0.013,0.942,0.006,1.097c0,0.213,0.882,0.823,0.987,1.001
	c0.058,0.061,0.6,0.279,0.6,0.279c0,0.004-0.112,0.126-0.112,0.127c-0.013,0.232-0.04,0.774,0.013,1.116
	c0.146,0.821,0.352,1.068,0.38,1.096c0.025,0.029,0.099,0.101,0.178,0.155c0.046,0.029,0.349,0.147,0.254,0.165
	c-0.155-0.043-0.171-0.015-0.693-0.099c-0.194-0.032-0.431-0.008-0.699-0.078c-0.344-0.063-0.71-0.082-0.938-0.127
	c-0.307-0.038-0.629-0.085-0.986-0.128c-0.219-0.04-0.139,0-0.368-0.053c-0.375-0.045-0.979-0.002-1.407-0.056
	c0.097,0.068-0.282-0.228-0.588-0.356c-0.322-0.14-0.607-0.061-0.578-0.172c-0.023,0.058,0.377-0.487,0.414-1.173
	c0-0.538,0.031-1.126,0.026-1.121"/>
<path fill="#FFFFFF" d="M6.673,33.311c0,0,0.167,0.08,0.246,0.007l0.112,0.018c0.003,0.003-0.352,0.436-0.315,0.068L6.673,33.311"/>
<polyline fill="#231F20" points="11.689,39.651 10.971,39.651 10.971,37.464 11.689,37.464 11.689,39.651 "/>
<path fill="#C31230" d="M10.971,38.737c-0.406-0.694-1.173-1.156-2.065-1.156c-1.135,0-2.088,0.744-2.307,1.748l-0.001-0.89
	c0.462-0.748,1.319-1.24,2.308-1.24c0.824,0,1.563,0.351,2.062,0.911L10.971,38.737"/>
<path fill="#231F20" d="M10.594,34.195v1.555l-1.318-0.115V34.04v-0.025c0.005-0.242,0.295-0.436,0.659-0.433
	c0.403,0.004,0.66,0.364,0.66,0.604V34.195"/>
<path fill="#231F20" d="M8.012,33.92v1.554L6.681,35.36l0-1.595v-0.026c0.005-0.241,0.298-0.434,0.664-0.431
	c0.407,0.003,0.666,0.364,0.666,0.603V33.92"/>
<path fill="#C31230" d="M17.215,29.791l0.003-4.426c0,0-3.084-1.595-7.687-1.595c-4.601,0-7.702,1.692-7.702,1.692v3.165
	l0.027,0.005l0.965,1.125l0.027-0.114c0.1,0.554,0.225,1.012,0.379,1.215c0.517,0.672,1.866,1.438,1.866,1.438
	c0,0.01-0.055-0.684,0.001-1.104c0.024-0.119,0.024-0.787,0.019-0.782c0-0.003,0.246,0.055,0.821,0.135l3.479,0.172l1.099,0.637
	l0.733,1.875l0.875,0.692c0,0,2.872-0.905,2.871-0.903c0.097-0.023,0.134,0.019,0.117,0.061c-0.064,0.026-1.776,0.857-1.767,0.851
	c0.047-0.011,0.096-0.022,0.146-0.032c0.324-0.066,0.684-0.114,0.953-0.137c1.14-0.149,2.289,0.171,2.623,0.254
	c0.04,0.015,0.09,0.029,0.153,0.048l0.005-4.271L17.215,29.791z"/>
<path fill="#231F20" d="M1.848,28.633c0,0,0.632-0.04,1.118,0.552c0.198,0.223,0.276,0.565,0.466,0.734
	c0.243,0.215,0.447,0.229,0.626,0.317c0.113,0.057,0.68,0.271,0.746,1.366l-0.097,0.421l-2.87-0.021
	C1.835,31.962,1.848,28.633,1.848,28.633"/>
<path fill="#231F20" d="M7.436,48.416C7.16,47.608,6.85,47.634,6.31,47.515c-0.06-0.019-0.23-0.022-0.33-0.084
	c-0.097-0.062-0.139-0.116-0.209-0.175c-1.183-0.966-1.918-0.457-2.009-0.494c-0.75-1.043-1.907-0.862-1.707-0.868
	c-0.007-0.002-0.122-0.002-0.198-0.004v2.844l1.995-0.127l2.905,0.049L7.436,48.416"/>
<polyline fill="#231F20" points="6.813,39.558 8.773,39.968 9.296,40.827 9.688,41.527 9.697,41.883 9.258,41.919 8.848,40.696 
	8.026,40.117 7.204,39.996 6.616,39.958 6.458,39.902 6.601,39.834 6.601,39.615 6.81,39.56 "/>
<path fill="#FFFFFF" d="M9.494,42.373l0.002-0.313c0-0.351-0.044-0.684-0.203-0.98c-0.073-0.139-0.16-0.27-0.262-0.392
	c-0.464-0.556-1.203-0.917-2.037-0.917l0,0c-0.989,0-1.846,0.492-2.307,1.241l0,0.89c0.219-1.004,1.171-1.749,2.307-1.749
	c0.892,0,1.593,0.432,1.999,1.126l0.022,0.044c0.123,0.306,0.111,0.496,0.117,0.86v0.197L9.494,42.373"/>
<path fill="#C31230" d="M11.056,47.258c0,0-3.289,0.001-3.918,0.001v-2.821l0,0c0-0.01,0-0.021,0.001-0.031
	c0.017-0.685,0.563-1.233,1.236-1.233c0.671,0,1.218,0.548,1.235,1.233c0,0.01,0,0.021,0,0.031h1.314c0-0.021,0-0.044,0-0.068
	c-0.035-1.411-1.163-2.545-2.549-2.545c-0.649,0-1.243,0.249-1.692,0.659c-0.017,0.016-0.012,0.027-0.028,0.043v1.878l0,0
	l-0.005,3.204l0.489,0.001v-0.001c0.669,0,3.919-0.001,3.918-0.001C11.056,47.608,11.056,47.258,11.056,47.258z"/>
<path fill="#C31230" d="M12.676,47.969c0.001,0,0,0.346-0.001,0.346c0,0-5.198,0.012-5.198,0.007c0,0.001-0.155-0.254-0.254-0.355
	C7.223,47.966,12.673,47.966,12.676,47.969"/>
<path fill="#231F20" d="M5.184,38.733c0,0-0.009,1.592-0.005,1.588c-0.375-0.075-0.853-0.148-0.853-0.148l0.001-1.519v-0.002
	c0-0.224,0.191-0.403,0.428-0.403S5.185,38.508,5.184,38.733L5.184,38.733"/>
<path fill="#231F20" d="M3.884,38.572l-0.001,1.541c-0.489-0.032-0.869-0.056-0.869-0.056v-1.565v-0.001
	c0-0.228,0.195-0.41,0.436-0.41S3.885,38.344,3.884,38.572L3.884,38.572"/>
<path fill="#231F20" d="M7.061,27.6C7.048,27.604,7.025,27.612,7,27.622L6.975,27.6c0.003,0-1.037,0.519-1.031,0.515
	c-0.001,0.003,0.126,0.107,0.204,0.171c0.025,0.021,0.047,0.042,0.061,0.054c-0.005,0.067,0.01,0.811,0.006,0.812
	c0,0-0.507,0.567-0.711,0.8c-0.038-0.067-0.077-0.133-0.107-0.184c0.085-0.026,0.147-0.098,0.147-0.183
	c0-0.106-0.094-0.193-0.211-0.193c-0.118,0-0.212,0.087-0.212,0.193c0,0.087,0.064,0.159,0.152,0.184
	c-0.104,0.179-0.302,0.52-0.302,0.522h0l0.126,0.121v0.208L5.096,30.62c0-0.001,0,0.002,0.001,0.006v0.013h0
	c0.005,0.085,0.008,0.491-0.074,0.912c-0.116-0.996-0.875-1.261-0.984-1.315c-0.181-0.09-0.384-0.103-0.626-0.318
	c-0.189-0.168-0.267-0.512-0.465-0.733c-0.487-0.592-1.111-0.553-1.111-0.553L1.83,28.629c0,0,0.005,3.336,0.006,3.375l3.068,0.087
	c-0.029,0.151-0.057,0.292-0.106,0.409c-0.117,0.279,0.257,0.07,0.579,0.211l0.65,0.188l1.749-5.063
	C7.776,27.837,7.066,27.599,7.061,27.6z"/>
<path fill="#FFFFFF" d="M6.838,32.929c0,0-0.001,0-0.003,0C6.855,32.943,6.854,32.942,6.838,32.929z M11.895,32.87
	c0.104-0.03,0.179-0.117,0.179-0.221c0-0.129-0.115-0.234-0.257-0.234c-0.141,0-0.256,0.105-0.256,0.234
	c0,0.105,0.078,0.193,0.184,0.222c-0.053,0.092-0.126,0.218-0.193,0.332c-0.025-0.022-0.044-0.042-0.056-0.055
	c-0.028-0.027-0.234-0.274-0.38-1.096c-0.001,0.026,0.008-1.09-0.003-1.11c0,0,0.003-0.004,0.008-0.01l0.11-0.107h0.001
	c0-0.004-0.217-0.378-0.331-0.572c0.093-0.027,0.161-0.105,0.161-0.199c0-0.116-0.104-0.21-0.231-0.21
	c-0.127,0-0.231,0.094-0.231,0.21c0,0.095,0.07,0.175,0.166,0.201c-0.042,0.073-0.101,0.173-0.156,0.267
	c-0.116-0.19-0.729-0.977-0.729-1.186c0.006-0.156-0.009-1.094-0.006-1.098c-0.001,0,0.272-0.212,0.27-0.212
	c0,0.001-1.48-0.87-1.543-0.851c0,0.003-1.62,0.417-1.626,0.424c0,0.003,0.262,0.236,0.264,0.236
	c0.004,0.073,0.058,1.152-0.023,1.289c-0.063,0.108-0.427,0.654-0.577,0.879c-0.07-0.12-0.155-0.267-0.213-0.366
	c0.092-0.028,0.161-0.106,0.161-0.199c0-0.117-0.104-0.21-0.231-0.21s-0.232,0.093-0.232,0.21c0,0.094,0.071,0.175,0.167,0.2
	c-0.114,0.195-0.33,0.568-0.33,0.57v0.001l0.137,0.133v0.15c-0.007,0.21-0.014,0.478-0.014,0.734
	c-0.026,0.462-0.215,0.858-0.329,1.052c-0.062-0.107-0.128-0.22-0.176-0.305c0.103-0.029,0.179-0.115,0.179-0.221
	c0-0.129-0.115-0.232-0.257-0.232c-0.142,0-0.257,0.104-0.257,0.232c0,0.106,0.079,0.195,0.184,0.223
	c-0.088,0.148-0.219,0.373-0.218,0.375l0.736,0.26V32.61c0,0-0.03-0.054-0.073-0.13c0.103,0.011,0.237,0.031,0.376,0.092
	c0.243,0.103,0.53,0.31,0.591,0.356c0.428,0.054,1.029,0.011,1.404,0.056c0.229,0.053,0.149,0.013,0.368,0.053
	c0.357,0.043,0.679,0.09,0.986,0.128c0.228,0.045,0.594,0.063,0.938,0.127c0.268,0.07,0.505,0.046,0.699,0.078
	c0.079,0.013,0.146,0.022,0.204,0.031c-0.037,0.062-0.06,0.103-0.06,0.104h0.001l0.151,0.147v0.274h0.579v-0.274l0.153-0.147l0,0
	C12.263,33.503,12.021,33.087,11.895,32.87z"/>
<polyline fill="#231F20" points="11.143,44.658 9.494,44.664 9.494,41.792 11.143,41.785 11.143,44.658 "/>
<path fill="#231F20" d="M11.617,34.575h0.367v-0.247h-0.367V34.575z M15.425,32.818c0,0-3.322,1.073-3.617,1.222
	c-0.091,0.044-0.297,0.182-0.278,0.301l1.874-0.411l2.1-0.991C15.504,32.938,15.599,32.799,15.425,32.818z"/>
<path fill="#D9C792" d="M13.335,39.315c0.003,0.022,0,0.017,0.009,0.034c0.052,0.058,0.293-0.017,0.321,0.289
	c0.002,0.022,0.025,1.217,0.025,1.582c0,0.023-0.066,0.029-0.136,0.037c-0.099,0.01-0.188,0.022-0.188,0.022
	c0,2.722-0.022,5.435-0.021,6.521c0,0.305,0.014,0.271,0.014,0.271c0.13-0.14,0.168-0.299,0.607-0.569
	c0.052-0.023,0.111-0.097,0.752-0.265c-0.001-3.615-0.005-13.242,0-13.244c-0.589,0.037-1.251,0.189-1.373,0.248
	C13.343,34.242,13.335,39.315,13.335,39.315"/>
<path fill="#D9C792" d="M3.022,40.054v-1.568c0-0.227,0.194-0.408,0.435-0.408c0.028,0,0.056,0.003,0.082,0.01
	c0-2.986,0-5.555,0-5.555c-1.123-0.041-1.368,0-1.712,0.034c0.001-0.005,0.009,14.636,0.009,14.636h0.006l-0.001-1.294
	c0.078,0.002,0.213-0.018,0.22-0.016c-0.181,0.005,0.745-0.141,1.478,0.598c0-1.209,0-3.787,0-6.402
	C3.231,40.067,3.022,40.054,3.022,40.054z"/>
<path fill="#D9C792" d="M3.016,40.055v-1.566c0-0.228,0.195-0.41,0.435-0.41c0.028,0,0.056,0.005,0.083,0.011
	c0-2.986,0-5.556-0.001-5.556c-1.123-0.04-1.359-0.004-1.705,0.031C1.83,32.56,1.83,47.203,1.83,47.203h0.005L1.834,45.91
	c0.078,0.003,0.214-0.018,0.22-0.017c-0.18,0.006,0.745-0.14,1.479,0.599c0-1.209,0-3.788,0.001-6.403
	C3.225,40.068,3.016,40.055,3.016,40.055z"/>
<path fill="#D9C792" d="M6.688,42.481c0.45-0.41,1.043-0.66,1.693-0.66c0.402,0,0.774,0.12,1.114,0.29v-0.054
	c0-0.351-0.036-0.685-0.192-0.981c-0.074-0.138-0.162-0.269-0.263-0.391c-0.465-0.558-1.205-0.917-2.038-0.917l0,0
	c-0.135,0-0.27,0.012-0.399,0.028l0.047,2.744C6.667,42.525,6.67,42.495,6.688,42.481z"/>
<path fill="#231F20" d="M10.138,31.577v1.44l-1.024-0.106v-1.477V31.41c0.005-0.225,0.229-0.402,0.512-0.399
	c0.313,0.003,0.512,0.338,0.512,0.56V31.577"/>
<path fill="#231F20" d="M9.112,28.916v1.385L8.13,30.18l-0.002-1.401v-0.022c0.003-0.215,0.22-0.388,0.492-0.385
	c0.301,0.003,0.492,0.324,0.492,0.538V28.916"/>
<path fill="#231F20" d="M8.139,31.34v1.464l-1.041-0.105v-1.505V31.17c0.004-0.228,0.233-0.409,0.521-0.407
	c0.319,0.004,0.521,0.344,0.521,0.57V31.34"/>
<path fill="#C31230" d="M6.414,32.657c0.528,0.276,0.503,0.351,0.544,0.425c0.012,0.047,0.008,0.092,0.005,0.107
	c-0.641-0.744-3.404-1.1-5.133-0.965l-0.002-0.539c0.083-0.033,0.455-0.16,0.522-0.182c0.104-0.034,0.417-0.132,0.544-0.072
	C3.125,31.464,6.106,32.469,6.414,32.657"/>
<path fill="#231F20" d="M7.436,48.416C7.16,47.608,6.85,47.634,6.31,47.515c-0.06-0.019-0.23-0.022-0.33-0.084
	c-0.097-0.062-0.139-0.116-0.209-0.175c-1.183-0.966-1.918-0.457-2.009-0.494c-0.75-1.043-1.907-0.862-1.707-0.868
	c-0.007-0.002-0.144,0.018-0.22,0.016l0.002,2.818l2.015-0.121l2.905,0.049L7.436,48.416"/>
<g>
	<path fill="#CE3334" d="M156.221,49.29v-3.166c0.916,0.87,1.803,1.305,2.661,1.305c0.638,0,1.184-0.224,1.636-0.673
		s0.679-0.99,0.679-1.623c0-0.545-0.128-1.206-0.383-1.983c-0.256-0.777-0.942-2.212-2.062-4.306s-1.848-3.68-2.184-4.758
		c-0.337-1.079-0.505-2.03-0.505-2.854c0-1.601,0.455-2.908,1.366-3.923c0.91-1.015,2.073-1.522,3.488-1.522
		c0.8,0,1.652,0.209,2.557,0.626v2.889c-0.835-0.487-1.548-0.731-2.14-0.731c-1.542,0-2.313,0.754-2.313,2.262
		c0,0.557,0.131,1.227,0.392,2.01c0.261,0.782,0.95,2.209,2.07,4.279c1.119,2.07,1.844,3.647,2.175,4.732
		c0.33,1.084,0.495,2.044,0.495,2.879c0,1.624-0.455,2.943-1.365,3.958c-0.911,1.015-2.091,1.522-3.54,1.522
		C158.204,50.213,157.194,49.905,156.221,49.29z"/>
	<path fill="#CE3334" d="M173.84,46.803v2.662c-0.894,0.579-1.81,0.869-2.749,0.869c-1.612,0-2.957-0.771-4.036-2.313
		c-1.078-1.542-1.617-3.503-1.617-5.88c0-2.482,0.533-4.512,1.601-6.089c1.066-1.577,2.418-2.366,4.053-2.366
		c0.777,0,1.612,0.191,2.506,0.574v2.853c-0.835-0.521-1.525-0.782-2.07-0.782c-0.986,0-1.772,0.513-2.357,1.539
		c-0.586,1.026-0.879,2.421-0.879,4.185c0,1.728,0.319,3.1,0.957,4.114s1.49,1.522,2.558,1.522
		C172.431,47.69,173.109,47.395,173.84,46.803z"/>
	<path fill="#CE3334" d="M175.106,49.899V26.101h2.783v9.585h0.069c0.754-1.333,1.729-2,2.923-2c0.975,0,1.795,0.389,2.462,1.165
		c0.667,0.777,1,1.873,1,3.288v11.761h-2.783V38.484c0-1.518-0.487-2.276-1.461-2.276c-0.558,0-1.064,0.278-1.522,0.834
		c-0.459,0.556-0.688,0.892-0.688,1.008v11.85H175.106z"/>
	<path fill="#CE3334" d="M191.144,50.334c-1.52,0-2.723-0.739-3.61-2.218c-0.887-1.479-1.331-3.511-1.331-6.098
		c0-2.586,0.444-4.622,1.331-6.106c0.888-1.484,2.091-2.227,3.61-2.227c1.519,0,2.726,0.742,3.618,2.227
		c0.894,1.484,1.34,3.521,1.34,6.106c0,2.587-0.446,4.619-1.34,6.098C193.869,49.595,192.662,50.334,191.144,50.334z M191.117,36.33
		c-1.374,0-2.062,1.896-2.062,5.688c0,3.781,0.71,5.672,2.131,5.672c1.374,0,2.062-1.891,2.062-5.672
		C193.248,38.226,192.538,36.33,191.117,36.33z"/>
	<path fill="#CE3334" d="M202.518,50.334c-1.52,0-2.723-0.739-3.61-2.218c-0.887-1.479-1.331-3.511-1.331-6.098
		c0-2.586,0.444-4.622,1.331-6.106c0.888-1.484,2.091-2.227,3.61-2.227c1.519,0,2.726,0.742,3.618,2.227
		c0.894,1.484,1.34,3.521,1.34,6.106c0,2.587-0.446,4.619-1.34,6.098C205.243,49.595,204.036,50.334,202.518,50.334z M202.491,36.33
		c-1.374,0-2.062,1.896-2.062,5.688c0,3.781,0.71,5.672,2.131,5.672c1.374,0,2.062-1.891,2.062-5.672
		C204.622,38.226,203.912,36.33,202.491,36.33z"/>
	<path fill="#CE3334" d="M209.332,49.899V26.101h2.784v23.799H209.332z"/>
	<path fill="#CE3334" d="M223.217,50.334c-1.52,0-2.723-0.739-3.61-2.218c-0.887-1.479-1.331-3.511-1.331-6.098
		c0-2.586,0.444-4.622,1.331-6.106c0.888-1.484,2.091-2.227,3.61-2.227c1.519,0,2.726,0.742,3.618,2.227
		c0.894,1.484,1.34,3.521,1.34,6.106c0,2.587-0.446,4.619-1.34,6.098C225.942,49.595,224.735,50.334,223.217,50.334z M223.19,36.33
		c-1.374,0-2.062,1.896-2.062,5.688c0,3.781,0.71,5.672,2.131,5.672c1.374,0,2.062-1.891,2.062-5.672
		C225.321,38.226,224.611,36.33,223.19,36.33z"/>
	<path fill="#CE3334" d="M230.502,49.899V36.556h-1.252V34.12h1.252v-2.505c0-3.886,1.851-5.828,5.55-5.828v2.313
		c-0.968,0-1.671,0.29-2.109,0.87c-0.438,0.58-0.656,1.514-0.656,2.801v2.349h1.548v2.436h-1.548v13.344H230.502z"/>
	<path fill="#CE3334" d="M241.821,49.29v-3.166c0.916,0.87,1.803,1.305,2.661,1.305c0.638,0,1.184-0.224,1.636-0.673
		s0.679-0.99,0.679-1.623c0-0.545-0.128-1.206-0.383-1.983c-0.256-0.777-0.942-2.212-2.062-4.306s-1.848-3.68-2.184-4.758
		c-0.337-1.079-0.505-2.03-0.505-2.854c0-1.601,0.455-2.908,1.366-3.923c0.91-1.015,2.073-1.522,3.488-1.522
		c0.8,0,1.652,0.209,2.557,0.626v2.889c-0.835-0.487-1.548-0.731-2.14-0.731c-1.542,0-2.313,0.754-2.313,2.262
		c0,0.557,0.131,1.227,0.392,2.01c0.261,0.782,0.95,2.209,2.07,4.279c1.119,2.07,1.844,3.647,2.175,4.732
		c0.33,1.084,0.495,2.044,0.495,2.879c0,1.624-0.455,2.943-1.365,3.958c-0.911,1.015-2.091,1.522-3.54,1.522
		C243.805,50.213,242.795,49.905,241.821,49.29z"/>
	<path fill="#CE3334" d="M255.909,50.334c-1.52,0-2.723-0.739-3.61-2.218c-0.887-1.479-1.331-3.511-1.331-6.098
		c0-2.586,0.444-4.622,1.331-6.106c0.888-1.484,2.091-2.227,3.61-2.227c1.519,0,2.726,0.742,3.618,2.227
		c0.894,1.484,1.34,3.521,1.34,6.106c0,2.587-0.446,4.619-1.34,6.098C258.635,49.595,257.428,50.334,255.909,50.334z M255.883,36.33
		c-1.374,0-2.062,1.896-2.062,5.688c0,3.781,0.71,5.672,2.131,5.672c1.374,0,2.062-1.891,2.062-5.672
		C258.014,38.226,257.304,36.33,255.883,36.33z"/>
	<path fill="#CE3334" d="M270.814,46.803v2.662c-0.894,0.579-1.81,0.869-2.749,0.869c-1.612,0-2.957-0.771-4.036-2.313
		c-1.078-1.542-1.617-3.503-1.617-5.88c0-2.482,0.533-4.512,1.601-6.089c1.066-1.577,2.418-2.366,4.053-2.366
		c0.777,0,1.612,0.191,2.506,0.574v2.853c-0.835-0.521-1.525-0.782-2.07-0.782c-0.986,0-1.772,0.513-2.357,1.539
		c-0.586,1.026-0.879,2.421-0.879,4.185c0,1.728,0.319,3.1,0.957,4.114s1.49,1.522,2.558,1.522
		C269.405,47.69,270.084,47.395,270.814,46.803z"/>
	<path fill="#CE3334" d="M273.438,28.988c-0.44,0-0.817-0.156-1.131-0.47c-0.313-0.313-0.47-0.69-0.47-1.131
		c0-0.452,0.157-0.832,0.47-1.14c0.313-0.307,0.69-0.461,1.131-0.461s0.818,0.154,1.131,0.461c0.313,0.308,0.47,0.688,0.47,1.14
		c0,0.44-0.156,0.817-0.47,1.131C274.256,28.832,273.878,28.988,273.438,28.988z M272.046,49.899V34.12h2.783v15.779H272.046z"/>
	<path fill="#CE3334" d="M287.144,46.977v2.105c-0.874,0.777-1.596,1.165-2.166,1.165c-1.036,0-1.718-0.661-2.044-1.983
		c-1.018,1.381-2.023,2.07-3.019,2.07c-0.821,0-1.541-0.397-2.16-1.191c-0.618-0.794-0.928-1.73-0.928-2.81
		c0-1.241,0.434-2.297,1.301-3.166c0.867-0.87,2.435-1.96,4.701-3.271v-1.514c0-1.368-0.55-2.053-1.647-2.053
		c-1.122,0-2.446,0.863-3.972,2.592v-3.201c1.415-1.356,2.818-2.035,4.21-2.035c1.159,0,2.148,0.383,2.966,1.148
		c0.817,0.765,1.227,1.798,1.227,3.097v8.907c0,0.614,0.146,0.922,0.436,0.922C286.222,47.76,286.587,47.499,287.144,46.977z
		 M282.829,45.881V41.81c-2.181,1.322-3.271,2.691-3.271,4.105c0,0.522,0.126,0.948,0.38,1.279c0.254,0.33,0.577,0.496,0.97,0.496
		c0.484,0,0.926-0.264,1.323-0.792C282.63,46.371,282.829,46.031,282.829,45.881z"/>
	<path fill="#CE3334" d="M288.218,49.899V26.101h2.784v23.799H288.218z"/>
	<path fill="#CE3334" d="M302.607,50.213l-5.098-24.112h3.219l2.813,16.001l0.071-0.002l3.204-15.999h2.21l3.021,16.358h0.071
		l2.996-16.358h3.218l-5.097,24.112h-2.105l-3.219-15.919h-0.069l-3.131,15.919H302.607z"/>
	<path fill="#CE3334" d="M322.489,50.334c-1.52,0-2.723-0.739-3.61-2.218c-0.887-1.479-1.331-3.511-1.331-6.098
		c0-2.586,0.444-4.622,1.331-6.106c0.888-1.484,2.091-2.227,3.61-2.227c1.519,0,2.726,0.742,3.618,2.227
		c0.894,1.484,1.34,3.521,1.34,6.106c0,2.587-0.446,4.619-1.34,6.098C325.215,49.595,324.008,50.334,322.489,50.334z M322.463,36.33
		c-1.374,0-2.062,1.896-2.062,5.688c0,3.781,0.71,5.672,2.131,5.672c1.374,0,2.062-1.891,2.062-5.672
		C324.594,38.226,323.884,36.33,322.463,36.33z"/>
	<path fill="#CE3334" d="M329.549,49.899V34.12h2.783v4.263h0.069c0.557-1.879,1.018-3.103,1.384-3.671
		c0.365-0.568,0.878-0.853,1.539-0.853c0.511,0,0.985,0.156,1.427,0.47l-0.209,2.854c-0.383-0.268-0.789-0.4-1.218-0.4
		c-0.87,0-1.586,0.782-2.148,2.349c-0.563,1.565-0.844,3.067-0.844,4.506v6.263H329.549z"/>
	<path fill="#CE3334" d="M337.461,49.899V26.101h2.783v23.799H337.461z M344.828,49.899l-4.306-8.124l3.975-7.655h2.915l-4.218,7.48
		l4.739,8.299H344.828z"/>
</g>
<line fill="none" stroke="#8A8686" stroke-width="0.7694" stroke-miterlimit="10" x1="147.212" y1="49.915" x2="147.212" y2="26.041"/>
</svg>
